ffmpeg started on 2025-06-16 at 16:18:54
Report written to "D:\Convert\FFMetrics\reports\psnr_report-6.txt"
Log level: 32
Command line:
ffmpeg -hide_banner -nostdin -i "G:\\\xc0\xed\xe8\xec\xe5\\[\xd2\xee\xef]\\\xd0\xfb\xf6\xe0\xf0\xfc-\xe2\xe0\xec\xef\xe8\xf0\\\xd2\xc2-1\\[JamClub] Vampire Knight - 05_HEVC.mkv" -i "G:\\\xc0\xed\xe8\xec\xe5\\[\xd2\xee\xef]\\\xd0\xfb\xf6\xe0\xf0\xfc-\xe2\xe0\xec\xef\xe8\xf0\\\xd2\xc2-1\\[JamClub] Vampire Knight - 05.mp4" -lavfi "[0:v]settb=AVTB,setpts=PTS-STARTPTS,format=pix_fmts=yuv420p10,fps=24000/1001,scale=1920:1080:flags=bicubic[main];[1:v]settb=AVTB,setpts=PTS-STARTPTS,format=pix_fmts=yuv420p,fps=24000/1001,scale=1920:1080:flags=bicubic[ref];[main][ref]psnr=eof_action=endall:stats_file='D\\:/Convert/FFMetrics/logs/psnr_logfile-6.txt'" -f null -
Input #0, matroska,webm, from 'G:\Аниме\[Топ]\Рыцарь-вампир\ТВ-1\[JamClub] Vampire Knight - 05_HEVC.mkv':
  Metadata:
    COMPATIBLE_BRANDS: isomiso2avc1mp41
    MAJOR_BRAND     : isom
    MINOR_VERSION   : 512
    ENCODER         : Lavf61.7.100
  Duration: 00:24:21.48, start: -0.001000, bitrate: 991 kb/s
  Stream #0:0: Video: hevc (Main 10), yuv420p10le(tv, bt709, progressive), 1920x1080 [SAR 1:1 DAR 16:9], 23.98 fps, 23.98 tbr, 1k tbn (default)
      Metadata:
        HANDLER_NAME    : VideoHandler
        VENDOR_ID       : [0][0][0][0]
        ENCODER         : Lavc61.19.100 libx265
        BPS             : 792183
        DURATION        : 00:24:21.376708333
        NUMBER_OF_FRAMES: 43665
        NUMBER_OF_BYTES : 144709720
        _STATISTICS_WRITING_APP: mkvpropedit v66.0.0 ('Josie') 64-bit
        _STATISTICS_WRITING_DATE_UTC: 2025-06-16 07:57:13
        _STATISTICS_TAGS: BPS DURATION NUMBER_OF_FRAMES NUMBER_OF_BYTES
  Stream #0:1(eng): Audio: aac (LC), 48000 Hz, stereo, fltp (default)
      Metadata:
        HANDLER_NAME    : SoundHandler
        VENDOR_ID       : [0][0][0][0]
        ENCODER         : Lavc61.19.100 aac
        BPS             : 194692
        DURATION        : 00:24:21.434000000
        NUMBER_OF_FRAMES: 68506
        NUMBER_OF_BYTES : 35566340
        _STATISTICS_WRITING_APP: mkvpropedit v66.0.0 ('Josie') 64-bit
        _STATISTICS_WRITING_DATE_UTC: 2025-06-16 07:57:13
        _STATISTICS_TAGS: BPS DURATION NUMBER_OF_FRAMES NUMBER_OF_BYTES
Input #1, mov,mp4,m4a,3gp,3g2,mj2, from 'G:\Аниме\[Топ]\Рыцарь-вампир\ТВ-1\[JamClub] Vampire Knight - 05.mp4':
  Metadata:
    major_brand     : isom
    minor_version   : 512
    compatible_brands: isomiso2avc1mp41
    encoder         : Lavf60.16.100
  Duration: 00:24:21.45, start: 0.000000, bitrate: 4077 kb/s
  Stream #1:0[0x1](und): Video: h264 (High) (avc1 / 0x31637661), yuv420p(progressive), 1920x1080 [SAR 1:1 DAR 16:9], 3877 kb/s, 29.88 fps, 23.98 tbr, 90k tbn (default)
      Metadata:
        handler_name    : VideoHandler
        vendor_id       : [0][0][0][0]
  Stream #1:1[0x2](eng): Audio: aac (LC) (mp4a / 0x6134706D), 48000 Hz, stereo, fltp, 191 kb/s (default)
      Metadata:
        handler_name    : SoundHandler
        vendor_id       : [0][0][0][0]
Stream mapping:
  Stream #0:0 (hevc) -> settb:default
  Stream #1:0 (h264) -> settb:default
  psnr:default -> Stream #0:0 (wrapped_avframe)
  Stream #0:1 -> #0:1 (aac (native) -> pcm_s16le (native))
Output #0, null, to 'pipe:':
  Metadata:
    COMPATIBLE_BRANDS: isomiso2avc1mp41
    MAJOR_BRAND     : isom
    MINOR_VERSION   : 512
    encoder         : Lavf61.7.100
  Stream #0:0: Video: wrapped_avframe, yuv420p10le(tv, bt709, progressive), 1920x1080 [SAR 1:1 DAR 16:9], q=2-31, 200 kb/s, 23.98 fps, 23.98 tbn
      Metadata:
        encoder         : Lavc61.19.100 wrapped_avframe
  Stream #0:1(eng): Audio: pcm_s16le, 48000 Hz, stereo, s16, 1536 kb/s (default)
      Metadata:
        HANDLER_NAME    : SoundHandler
        VENDOR_ID       : [0][0][0][0]
        _STATISTICS_TAGS: BPS DURATION NUMBER_OF_FRAMES NUMBER_OF_BYTES
        BPS             : 194692
        DURATION        : 00:24:21.434000000
        NUMBER_OF_FRAMES: 68506
        NUMBER_OF_BYTES : 35566340
        _STATISTICS_WRITING_APP: mkvpropedit v66.0.0 ('Josie') 64-bit
        _STATISTICS_WRITING_DATE_UTC: 2025-06-16 07:57:13
        encoder         : Lavc61.19.100 pcm_s16le
frame=  119 fps=0.0 q=-0.0 size=N/A time=00:00:04.96 bitrate=N/A speed=9.61x    frame=  281 fps=273 q=-0.0 size=N/A time=00:00:11.72 bitrate=N/A speed=11.4x    frame=  493 fps=317 q=-0.0 size=N/A time=00:00:20.56 bitrate=N/A speed=13.2x    frame=  722 fps=349 q=-0.0 size=N/A time=00:00:30.11 bitrate=N/A speed=14.6x    frame=  955 fps=371 q=-0.0 size=N/A time=00:00:39.83 bitrate=N/A speed=15.5x    frame= 1188 fps=383 q=-0.0 size=N/A time=00:00:49.54 bitrate=N/A speed=  16x    frame= 1423 fps=394 q=-0.0 size=N/A time=00:00:59.35 bitrate=N/A speed=16.4x    frame= 1639 fps=397 q=-0.0 size=N/A time=00:01:08.35 bitrate=N/A speed=16.6x    frame= 1826 fps=394 q=-0.0 size=N/A time=00:01:16.15 bitrate=N/A speed=16.4x    frame= 2058 fps=399 q=-0.0 size=N/A time=00:01:25.83 bitrate=N/A speed=16.6x    frame= 2284 fps=403 q=-0.0 size=N/A time=00:01:35.26 bitrate=N/A speed=16.8x    frame= 2517 fps=407 q=-0.0 size=N/A time=00:01:44.97 bitrate=N/A speed=  17x    frame= 2749 fps=410 q=-0.0 size=N/A time=00:01:54.65 bitrate=N/A speed=17.1x    frame= 2967 fps=411 q=-0.0 size=N/A time=00:02:03.74 bitrate=N/A speed=17.1x    frame= 3209 fps=415 q=-0.0 size=N/A time=00:02:13.84 bitrate=N/A speed=17.3x    frame= 3440 fps=417 q=-0.0 size=N/A time=00:02:23.47 bitrate=N/A speed=17.4x    frame= 3679 fps=419 q=-0.0 size=N/A time=00:02:33.44 bitrate=N/A speed=17.5x    frame= 3873 fps=417 q=-0.0 size=N/A time=00:02:41.53 bitrate=N/A speed=17.4x    frame= 4041 fps=412 q=-0.0 size=N/A time=00:02:48.54 bitrate=N/A speed=17.2x    frame= 4205 fps=408 q=-0.0 size=N/A time=00:02:55.38 bitrate=N/A speed=  17x    frame= 4388 fps=405 q=-0.0 size=N/A time=00:03:03.01 bitrate=N/A speed=16.9x    frame= 4577 fps=403 q=-0.0 size=N/A time=00:03:10.89 bitrate=N/A speed=16.8x    frame= 4778 fps=403 q=-0.0 size=N/A time=00:03:19.28 bitrate=N/A speed=16.8x    frame= 4917 fps=397 q=-0.0 size=N/A time=00:03:25.07 bitrate=N/A speed=16.6x    frame= 5114 fps=396 q=-0.0 size=N/A time=00:03:33.29 bitrate=N/A speed=16.5x    frame= 5274 fps=393 q=-0.0 size=N/A time=00:03:39.96 bitrate=N/A speed=16.4x    frame= 5467 fps=393 q=-0.0 size=N/A time=00:03:48.01 bitrate=N/A speed=16.4x    frame= 5667 fps=392 q=-0.0 size=N/A time=00:03:56.36 bitrate=N/A speed=16.4x    frame= 5877 fps=393 q=-0.0 size=N/A time=00:04:05.11 bitrate=N/A speed=16.4x    frame= 6083 fps=393 q=-0.0 size=N/A time=00:04:13.71 bitrate=N/A speed=16.4x    frame= 6313 fps=395 q=-0.0 size=N/A time=00:04:23.30 bitrate=N/A speed=16.5x    frame= 6519 fps=395 q=-0.0 size=N/A time=00:04:31.89 bitrate=N/A speed=16.5x    frame= 6752 fps=397 q=-0.0 size=N/A time=00:04:41.61 bitrate=N/A speed=16.6x    frame= 6983 fps=398 q=-0.0 size=N/A time=00:04:51.24 bitrate=N/A speed=16.6x    frame= 7205 fps=399 q=-0.0 size=N/A time=00:05:00.50 bitrate=N/A speed=16.7x    frame= 7443 fps=401 q=-0.0 size=N/A time=00:05:10.43 bitrate=N/A speed=16.7x    frame= 7685 fps=403 q=-0.0 size=N/A time=00:05:20.52 bitrate=N/A speed=16.8x    frame= 7904 fps=403 q=-0.0 size=N/A time=00:05:29.66 bitrate=N/A speed=16.8x    frame= 8128 fps=404 q=-0.0 size=N/A time=00:05:39.00 bitrate=N/A speed=16.9x    frame= 8344 fps=404 q=-0.0 size=N/A time=00:05:48.01 bitrate=N/A speed=16.9x    frame= 8591 fps=406 q=-0.0 size=N/A time=00:05:58.31 bitrate=N/A speed=16.9x    frame= 8826 fps=408 q=-0.0 size=N/A time=00:06:08.11 bitrate=N/A speed=  17x    frame= 9051 fps=408 q=-0.0 size=N/A time=00:06:17.50 bitrate=N/A speed=  17x    frame= 9290 fps=410 q=-0.0 size=N/A time=00:06:27.47 bitrate=N/A speed=17.1x    frame= 9522 fps=410 q=-0.0 size=N/A time=00:06:37.14 bitrate=N/A speed=17.1x    frame= 9749 fps=411 q=-0.0 size=N/A time=00:06:46.61 bitrate=N/A speed=17.1x    frame= 9962 fps=411 q=-0.0 size=N/A time=00:06:55.49 bitrate=N/A speed=17.1x    frame=10185 fps=411 q=-0.0 size=N/A time=00:07:04.79 bitrate=N/A speed=17.2x    frame=10405 fps=412 q=-0.0 size=N/A time=00:07:13.97 bitrate=N/A speed=17.2x    frame=10637 fps=413 q=-0.0 size=N/A time=00:07:23.65 bitrate=N/A speed=17.2x    frame=10864 fps=413 q=-0.0 size=N/A time=00:07:33.11 bitrate=N/A speed=17.2x    frame=11099 fps=414 q=-0.0 size=N/A time=00:07:42.92 bitrate=N/A speed=17.3x    frame=11337 fps=415 q=-0.0 size=N/A time=00:07:52.84 bitrate=N/A speed=17.3x    frame=11586 fps=416 q=-0.0 size=N/A time=00:08:03.27 bitrate=N/A speed=17.4x    frame=11822 fps=417 q=-0.0 size=N/A time=00:08:13.07 bitrate=N/A speed=17.4x    frame=12077 fps=418 q=-0.0 size=N/A time=00:08:23.71 bitrate=N/A speed=17.4x    frame=12286 fps=418 q=-0.0 size=N/A time=00:08:32.42 bitrate=N/A speed=17.4x    frame=12481 fps=417 q=-0.0 size=N/A time=00:08:40.56 bitrate=N/A speed=17.4x    frame=12694 fps=417 q=-0.0 size=N/A time=00:08:49.44 bitrate=N/A speed=17.4x    frame=12893 fps=417 q=-0.0 size=N/A time=00:08:57.74 bitrate=N/A speed=17.4x    frame=13109 fps=417 q=-0.0 size=N/A time=00:09:06.75 bitrate=N/A speed=17.4x    frame=13316 fps=416 q=-0.0 size=N/A time=00:09:15.38 bitrate=N/A speed=17.4x    frame=13526 fps=416 q=-0.0 size=N/A time=00:09:24.14 bitrate=N/A speed=17.4x    frame=13737 fps=416 q=-0.0 size=N/A time=00:09:32.94 bitrate=N/A speed=17.4x    frame=13965 fps=417 q=-0.0 size=N/A time=00:09:42.45 bitrate=N/A speed=17.4x    frame=14182 fps=417 q=-0.0 size=N/A time=00:09:51.50 bitrate=N/A speed=17.4x    frame=14382 fps=416 q=-0.0 size=N/A time=00:09:59.84 bitrate=N/A speed=17.4x    frame=14589 fps=416 q=-0.0 size=N/A time=00:10:08.48 bitrate=N/A speed=17.4x    frame=14809 fps=416 q=-0.0 size=N/A time=00:10:17.65 bitrate=N/A speed=17.4x    frame=15033 fps=417 q=-0.0 size=N/A time=00:10:27.00 bitrate=N/A speed=17.4x    frame=15252 fps=417 q=-0.0 size=N/A time=00:10:36.13 bitrate=N/A speed=17.4x    frame=15487 fps=417 q=-0.0 size=N/A time=00:10:45.93 bitrate=N/A speed=17.4x    frame=15707 fps=417 q=-0.0 size=N/A time=00:10:55.11 bitrate=N/A speed=17.4x    frame=15950 fps=418 q=-0.0 size=N/A time=00:11:05.24 bitrate=N/A speed=17.4x    frame=16185 fps=418 q=-0.0 size=N/A time=00:11:15.04 bitrate=N/A speed=17.5x    frame=16415 fps=419 q=-0.0 size=N/A time=00:11:24.64 bitrate=N/A speed=17.5x    frame=16667 fps=420 q=-0.0 size=N/A time=00:11:35.15 bitrate=N/A speed=17.5x    frame=16907 fps=420 q=-0.0 size=N/A time=00:11:45.16 bitrate=N/A speed=17.5x    frame=17146 fps=421 q=-0.0 size=N/A time=00:11:55.13 bitrate=N/A speed=17.6x    frame=17381 fps=421 q=-0.0 size=N/A time=00:12:04.97 bitrate=N/A speed=17.6x    frame=17597 fps=421 q=-0.0 size=N/A time=00:12:13.94 bitrate=N/A speed=17.6x    frame=17805 fps=421 q=-0.0 size=N/A time=00:12:22.61 bitrate=N/A speed=17.6x    frame=18024 fps=421 q=-0.0 size=N/A time=00:12:31.75 bitrate=N/A speed=17.6x    frame=18229 fps=421 q=-0.0 size=N/A time=00:12:40.30 bitrate=N/A speed=17.5x    frame=18469 fps=421 q=-0.0 size=N/A time=00:12:50.31 bitrate=N/A speed=17.6x    frame=18676 fps=421 q=-0.0 size=N/A time=00:12:58.94 bitrate=N/A speed=17.6x    frame=18890 fps=421 q=-0.0 size=N/A time=00:13:07.87 bitrate=N/A speed=17.6x    frame=19107 fps=421 q=-0.0 size=N/A time=00:13:16.92 bitrate=N/A speed=17.6x    frame=19340 fps=421 q=-0.0 size=N/A time=00:13:26.63 bitrate=N/A speed=17.6x    frame=19585 fps=422 q=-0.0 size=N/A time=00:13:36.85 bitrate=N/A speed=17.6x    frame=19821 fps=422 q=-0.0 size=N/A time=00:13:46.74 bitrate=N/A speed=17.6x    frame=20060 fps=423 q=-0.0 size=N/A time=00:13:56.66 bitrate=N/A speed=17.6x    frame=20289 fps=423 q=-0.0 size=N/A time=00:14:06.22 bitrate=N/A speed=17.6x    frame=20515 fps=423 q=-0.0 size=N/A time=00:14:15.64 bitrate=N/A speed=17.6x    frame=20718 fps=423 q=-0.0 size=N/A time=00:14:24.11 bitrate=N/A speed=17.6x    frame=20948 fps=423 q=-0.0 size=N/A time=00:14:33.70 bitrate=N/A speed=17.6x    frame=21196 fps=423 q=-0.0 size=N/A time=00:14:44.04 bitrate=N/A speed=17.7x    frame=21425 fps=424 q=-0.0 size=N/A time=00:14:53.60 bitrate=N/A speed=17.7x    frame=21661 fps=424 q=-0.0 size=N/A time=00:15:03.44 bitrate=N/A speed=17.7x    frame=21907 fps=425 q=-0.0 size=N/A time=00:15:13.70 bitrate=N/A speed=17.7x    frame=22131 fps=425 q=-0.0 size=N/A time=00:15:23.04 bitrate=N/A speed=17.7x    frame=22351 fps=425 q=-0.0 size=N/A time=00:15:32.22 bitrate=N/A speed=17.7x    frame=22581 fps=425 q=-0.0 size=N/A time=00:15:41.81 bitrate=N/A speed=17.7x    frame=22822 fps=425 q=-0.0 size=N/A time=00:15:51.86 bitrate=N/A speed=17.7x    frame=23041 fps=425 q=-0.0 size=N/A time=00:16:01.00 bitrate=N/A speed=17.7x    frame=23251 fps=425 q=-0.0 size=N/A time=00:16:09.76 bitrate=N/A speed=17.7x    frame=23467 fps=425 q=-0.0 size=N/A time=00:16:18.76 bitrate=N/A speed=17.7x    frame=23708 fps=425 q=-0.0 size=N/A time=00:16:28.82 bitrate=N/A speed=17.7x    frame=23940 fps=426 q=-0.0 size=N/A time=00:16:38.49 bitrate=N/A speed=17.8x    frame=24165 fps=426 q=-0.0 size=N/A time=00:16:47.88 bitrate=N/A speed=17.8x    frame=24390 fps=426 q=-0.0 size=N/A time=00:16:57.26 bitrate=N/A speed=17.8x    frame=24608 fps=426 q=-0.0 size=N/A time=00:17:06.35 bitrate=N/A speed=17.8x    frame=24844 fps=426 q=-0.0 size=N/A time=00:17:16.20 bitrate=N/A speed=17.8x    frame=25069 fps=426 q=-0.0 size=N/A time=00:17:25.58 bitrate=N/A speed=17.8x    frame=25285 fps=426 q=-0.0 size=N/A time=00:17:34.59 bitrate=N/A speed=17.8x    frame=25498 fps=426 q=-0.0 size=N/A time=00:17:43.47 bitrate=N/A speed=17.8x    frame=25739 fps=426 q=-0.0 size=N/A time=00:17:53.53 bitrate=N/A speed=17.8x    frame=25960 fps=426 q=-0.0 size=N/A time=00:18:02.74 bitrate=N/A speed=17.8x    frame=26198 fps=427 q=-0.0 size=N/A time=00:18:12.67 bitrate=N/A speed=17.8x    frame=26445 fps=427 q=-0.0 size=N/A time=00:18:22.97 bitrate=N/A speed=17.8x    frame=26689 fps=428 q=-0.0 size=N/A time=00:18:33.15 bitrate=N/A speed=17.8x    frame=26934 fps=428 q=-0.0 size=N/A time=00:18:43.37 bitrate=N/A speed=17.8x    frame=27165 fps=428 q=-0.0 size=N/A time=00:18:53.00 bitrate=N/A speed=17.9x    frame=27407 fps=428 q=-0.0 size=N/A time=00:19:03.10 bitrate=N/A speed=17.9x    frame=27649 fps=429 q=-0.0 size=N/A time=00:19:13.19 bitrate=N/A speed=17.9x    frame=27863 fps=429 q=-0.0 size=N/A time=00:19:22.11 bitrate=N/A speed=17.9x    frame=28081 fps=429 q=-0.0 size=N/A time=00:19:31.21 bitrate=N/A speed=17.9x    frame=28315 fps=429 q=-0.0 size=N/A time=00:19:40.97 bitrate=N/A speed=17.9x    frame=28545 fps=429 q=-0.0 size=N/A time=00:19:50.56 bitrate=N/A speed=17.9x    frame=28775 fps=429 q=-0.0 size=N/A time=00:20:00.15 bitrate=N/A speed=17.9x    frame=29013 fps=429 q=-0.0 size=N/A time=00:20:10.08 bitrate=N/A speed=17.9x    frame=29231 fps=429 q=-0.0 size=N/A time=00:20:19.17 bitrate=N/A speed=17.9x    frame=29467 fps=429 q=-0.0 size=N/A time=00:20:29.01 bitrate=N/A speed=17.9x    frame=29684 fps=429 q=-0.0 size=N/A time=00:20:38.07 bitrate=N/A speed=17.9x    frame=29877 fps=429 q=-0.0 size=N/A time=00:20:46.11 bitrate=N/A speed=17.9x    frame=30085 fps=429 q=-0.0 size=N/A time=00:20:54.79 bitrate=N/A speed=17.9x    frame=30320 fps=429 q=-0.0 size=N/A time=00:21:04.59 bitrate=N/A speed=17.9x    frame=30545 fps=429 q=-0.0 size=N/A time=00:21:13.98 bitrate=N/A speed=17.9x    frame=30782 fps=429 q=-0.0 size=N/A time=00:21:23.86 bitrate=N/A speed=17.9x    frame=31029 fps=430 q=-0.0 size=N/A time=00:21:34.16 bitrate=N/A speed=17.9x    frame=31246 fps=429 q=-0.0 size=N/A time=00:21:43.21 bitrate=N/A speed=17.9x    frame=31466 fps=429 q=-0.0 size=N/A time=00:21:52.39 bitrate=N/A speed=17.9x    frame=31687 fps=429 q=-0.0 size=N/A time=00:22:01.61 bitrate=N/A speed=17.9x    frame=31893 fps=429 q=-0.0 size=N/A time=00:22:10.20 bitrate=N/A speed=17.9x    frame=32127 fps=429 q=-0.0 size=N/A time=00:22:19.96 bitrate=N/A speed=17.9x    frame=32354 fps=429 q=-0.0 size=N/A time=00:22:29.43 bitrate=N/A speed=17.9x    frame=32590 fps=430 q=-0.0 size=N/A time=00:22:39.27 bitrate=N/A speed=17.9x    frame=32833 fps=430 q=-0.0 size=N/A time=00:22:49.40 bitrate=N/A speed=17.9x    frame=33057 fps=430 q=-0.0 size=N/A time=00:22:58.75 bitrate=N/A speed=17.9x    frame=33254 fps=430 q=-0.0 size=N/A time=00:23:06.96 bitrate=N/A speed=17.9x    frame=33469 fps=429 q=-0.0 size=N/A time=00:23:15.93 bitrate=N/A speed=17.9x    frame=33697 fps=430 q=-0.0 size=N/A time=00:23:25.44 bitrate=N/A speed=17.9x    frame=33942 fps=430 q=-0.0 size=N/A time=00:23:35.66 bitrate=N/A speed=17.9x    frame=34196 fps=430 q=-0.0 size=N/A time=00:23:46.25 bitrate=N/A speed=17.9x    frame=34410 fps=430 q=-0.0 size=N/A time=00:23:55.18 bitrate=N/A speed=17.9x    frame=34623 fps=430 q=-0.0 size=N/A time=00:24:04.06 bitrate=N/A speed=17.9x    frame=34849 fps=430 q=-0.0 size=N/A time=00:24:13.49 bitrate=N/A speed=17.9x    [Parsed_psnr_10 @ 000001ac5869d300] PSNR y:49.541719 u:51.792027 v:51.899616 average:50.182730 min:37.687346 max:inf
[out#0/null @ 000001ac55cddd00] video:15055KiB audio:274024KiB subtitle:0KiB other streams:0KiB global headers:0KiB muxing overhead: unknown
frame=35038 fps=430 q=-0.0 Lsize=N/A time=00:24:21.37 bitrate=N/A speed=  18x    
